<?xml version="1.0" encoding="UTF-8"?> <svg xmlns="http://www.w3.org/2000/svg" xmlns:xlink="http://www.w3.org/1999/xlink" width="150" height="57" viewBox="0 0 150 57"><defs><clipPath id="b"><rect width="150" height="57"></rect></clipPath></defs><g id="a" clip-path="url(#b)"><g transform="translate(35.85 0.832)"><path d="M80.641,12.449l-.079,27.877H55.985c-6.736-1.2-11.066-4.67-12.467-10.139h26.92V24.717H43.51a13.386,13.386,0,0,1,8.762-8.968,10.317,10.317,0,0,1,3.752-.507l14.335-.174.016-4.963H20.6L20.58.18l47.7.008a11.69,11.69,0,0,1,3.989.673A12.088,12.088,0,0,1,80.111,8.8a11.883,11.883,0,0,1,.538,3.625v.024Z" transform="translate(-3.842 -0.003)" fill="#8d9a9e"></path><path d="M4.05,40l22.63.008c6.76-.625,11.216-3.863,13-9.823l-35.65-.008L4.042,40ZM39.7.193l.016,9.926H12.456v4.662l14.532.04a10.018,10.018,0,0,1,2.77.364,12.822,12.822,0,0,1,9.918,9.53l-24.783.024a10.112,10.112,0,0,1-2.6-.222A12.118,12.118,0,0,1,2.15,12.7a12.346,12.346,0,0,1,10-12.166,16.972,16.972,0,0,1,4.8-.356H39.7Z" fill="#149ad6"></path><path d="M77.2,54.144H4.51V53.97H77.2Z" transform="translate(-0.492 -11.217)" fill="#8d9a9e"></path><path d="M77.2,71.722H4.51V71.54H77.2Z" transform="translate(-0.492 -14.879)" fill="#8d9a9e"></path><path d="M7.154,57.414H4.51V56.52h6.348v.894H8.214v7.045H7.154Z" transform="translate(-0.492 -11.748)" fill="#494a49"></path><path d="M16.722,61.58a2.117,2.117,0,0,0-.15-.633,1.7,1.7,0,0,0-.34-.522,1.666,1.666,0,0,0-.514-.34,1.583,1.583,0,0,0-.649-.127,1.777,1.777,0,0,0-.665.127,1.649,1.649,0,0,0-.507.348,1.552,1.552,0,0,0-.332.522,1.893,1.893,0,0,0-.142.633h3.3Zm.91,1.607a2.267,2.267,0,0,1-.839,1.456,2.616,2.616,0,0,1-1.623.483,3.038,3.038,0,0,1-1.2-.222,2.262,2.262,0,0,1-.855-.625,2.733,2.733,0,0,1-.522-.958,4.784,4.784,0,0,1-.2-1.211,3.652,3.652,0,0,1,.2-1.2,2.99,2.99,0,0,1,.562-.95,2.681,2.681,0,0,1,.855-.625A2.709,2.709,0,0,1,15.1,59.11a2.323,2.323,0,0,1,1.274.317,2.387,2.387,0,0,1,.807.807,3.326,3.326,0,0,1,.427,1.069,4.437,4.437,0,0,1,.095,1.1H13.4a2.367,2.367,0,0,0,.087.72,1.547,1.547,0,0,0,.325.594,1.589,1.589,0,0,0,.562.42,1.986,1.986,0,0,0,.807.15,1.638,1.638,0,0,0,.981-.277,1.357,1.357,0,0,0,.507-.847h.942Z" transform="translate(-2.137 -12.288)" fill="#494a49"></path><path d="M25.1,61.1a1.416,1.416,0,0,0-.467-.839,1.445,1.445,0,0,0-.958-.3,1.751,1.751,0,0,0-.855.19,1.55,1.55,0,0,0-.554.507,2.194,2.194,0,0,0-.3.72,3.729,3.729,0,0,0-.087.839,3.155,3.155,0,0,0,.095.776,1.925,1.925,0,0,0,.3.673,1.485,1.485,0,0,0,.522.467,1.551,1.551,0,0,0,.768.182,1.519,1.519,0,0,0,1.092-.364,1.638,1.638,0,0,0,.483-1.029H26.1a2.62,2.62,0,0,1-.792,1.646,2.488,2.488,0,0,1-1.741.578,2.99,2.99,0,0,1-1.164-.214,2.273,2.273,0,0,1-.847-.594,2.435,2.435,0,0,1-.514-.934,3.98,3.98,0,0,1-.174-1.187,4.167,4.167,0,0,1,.174-1.2,2.963,2.963,0,0,1,.507-.981,2.522,2.522,0,0,1,.855-.657,2.8,2.8,0,0,1,1.2-.237,3.433,3.433,0,0,1,.918.119,2.4,2.4,0,0,1,.76.356,1.816,1.816,0,0,1,.538.609,2.158,2.158,0,0,1,.261.887h-.989V61.1Z" transform="translate(-3.903 -12.294)" fill="#494a49"></path><path d="M29.75,56.52h.95v3.039h.024a1.326,1.326,0,0,1,.317-.451,1.951,1.951,0,0,1,.451-.3,2.111,2.111,0,0,1,.522-.166,3.1,3.1,0,0,1,.53-.055,2.6,2.6,0,0,1,.95.15,1.59,1.59,0,0,1,.617.435,1.74,1.74,0,0,1,.325.665,3.531,3.531,0,0,1,.095.855v3.776h-.95V60.573a1.122,1.122,0,0,0-.317-.847,1.159,1.159,0,0,0-.855-.317,1.963,1.963,0,0,0-.752.135,1.5,1.5,0,0,0-.53.372,1.64,1.64,0,0,0-.317.578,2.314,2.314,0,0,0-.1.712v3.253h-.95V56.52Z" transform="translate(-5.754 -11.748)" fill="#494a49"></path><path d="M38.48,59.255h.887v.91h.024a1.991,1.991,0,0,1,1.868-1.045,2.572,2.572,0,0,1,.95.15,1.59,1.59,0,0,1,.617.435,1.74,1.74,0,0,1,.325.665,3.531,3.531,0,0,1,.095.855v3.783H42.3V61.115a1.117,1.117,0,0,0-.309-.839,1.159,1.159,0,0,0-.855-.317,1.963,1.963,0,0,0-.752.135,1.42,1.42,0,0,0-.53.38,1.676,1.676,0,0,0-.317.57,2.33,2.33,0,0,0-.1.72v3.253h-.95V59.262h0Z" transform="translate(-7.574 -12.29)" fill="#494a49"></path><path d="M56.28,56.52h.95v7.939h-.95Z" transform="translate(-11.285 -11.748)" fill="#494a49"></path><path d="M60.867,62.136a3,3,0,0,0,.135.926,1.9,1.9,0,0,0,.388.681,1.64,1.64,0,0,0,.57.42,1.74,1.74,0,0,0,.689.15,1.65,1.65,0,0,0,.689-.142,1.571,1.571,0,0,0,.57-.419,1.953,1.953,0,0,0,.38-.681,2.783,2.783,0,0,0,.135-.926,3.093,3.093,0,0,0-.135-.934,2.173,2.173,0,0,0-.38-.681,1.663,1.663,0,0,0-.57-.427,1.731,1.731,0,0,0-.689-.142,1.682,1.682,0,0,0-.689.15,1.505,1.505,0,0,0-.57.427,2.027,2.027,0,0,0-.38.681A2.7,2.7,0,0,0,60.867,62.136Zm-1,0a3.846,3.846,0,0,1,.182-1.187,2.78,2.78,0,0,1,.538-.958,2.475,2.475,0,0,1,.879-.641,3.02,3.02,0,0,1,1.2-.23,2.965,2.965,0,0,1,1.2.23,2.355,2.355,0,0,1,.871.641,2.642,2.642,0,0,1,.538.958,3.809,3.809,0,0,1,.182,1.187,3.759,3.759,0,0,1-.182,1.179,2.674,2.674,0,0,1-.538.95,2.6,2.6,0,0,1-.871.633,3.268,3.268,0,0,1-2.406,0,2.456,2.456,0,0,1-.879-.633,2.744,2.744,0,0,1-.538-.95A3.832,3.832,0,0,1,59.87,62.136Z" transform="translate(-12.033 -12.29)" fill="#494a49"></path><path d="M74.119,64.52a3,3,0,0,1-.649,2.113,2.633,2.633,0,0,1-2.026.7,3.666,3.666,0,0,1-.815-.087,2.374,2.374,0,0,1-.76-.293,1.87,1.87,0,0,1-.562-.522,1.536,1.536,0,0,1-.245-.792H70a.687.687,0,0,0,.166.435,1.247,1.247,0,0,0,.372.293,1.55,1.55,0,0,0,.467.158,2.688,2.688,0,0,0,.483.047,1.723,1.723,0,0,0,.792-.158,1.543,1.543,0,0,0,.538-.443,1.852,1.852,0,0,0,.309-.681,4.269,4.269,0,0,0,.095-.879v-.38H73.2a1.562,1.562,0,0,1-.744.784,2.215,2.215,0,0,1-1.053.245,2.638,2.638,0,0,1-1.124-.23,2.328,2.328,0,0,1-.8-.633A2.749,2.749,0,0,1,69,63.285a3.659,3.659,0,0,1-.158-1.116,4.028,4.028,0,0,1,.135-1.045,2.976,2.976,0,0,1,.443-.981,2.424,2.424,0,0,1,.815-.728,2.54,2.54,0,0,1,1.251-.285,2.086,2.086,0,0,1,1,.237,1.764,1.764,0,0,1,.712.712H73.2v-.815h.887v5.264Zm-2.644-.285a1.523,1.523,0,0,0,.792-.2,1.5,1.5,0,0,0,.53-.514,2.559,2.559,0,0,0,.3-.72,3.447,3.447,0,0,0,.095-.8,2.9,2.9,0,0,0-.087-.744,2.074,2.074,0,0,0-.277-.665,1.436,1.436,0,0,0-.507-.467,1.5,1.5,0,0,0-.76-.182,1.534,1.534,0,0,0-1.306.633,2.116,2.116,0,0,0-.3.665,3.236,3.236,0,0,0-.095.792,3.687,3.687,0,0,0,.079.776,2.4,2.4,0,0,0,.261.712,1.5,1.5,0,0,0,.507.514,1.464,1.464,0,0,0,.776.2h-.008Z" transform="translate(-13.903 -12.292)" fill="#494a49"></path><path d="M79.25,57.674H78.3V56.51h.95Zm-.942,1.037h.95v5.754h-.95Z" transform="translate(-15.875 -11.746)" fill="#494a49"></path><path d="M86.192,61.58a2.116,2.116,0,0,0-.15-.633,1.571,1.571,0,0,0-.34-.522,1.666,1.666,0,0,0-.514-.34,1.583,1.583,0,0,0-.649-.127,1.777,1.777,0,0,0-.665.127,1.523,1.523,0,0,0-.507.348,1.552,1.552,0,0,0-.332.522,1.893,1.893,0,0,0-.142.633h3.3Zm.91,1.607a2.267,2.267,0,0,1-.839,1.456,2.616,2.616,0,0,1-1.623.483,3.038,3.038,0,0,1-1.2-.222,2.262,2.262,0,0,1-.855-.625,2.733,2.733,0,0,1-.522-.958,4.784,4.784,0,0,1-.2-1.211,3.652,3.652,0,0,1,.2-1.2,2.99,2.99,0,0,1,.562-.95,2.681,2.681,0,0,1,.855-.625,2.709,2.709,0,0,1,1.084-.222,2.323,2.323,0,0,1,1.274.317,2.46,2.46,0,0,1,.807.807,3.325,3.325,0,0,1,.427,1.069,4.437,4.437,0,0,1,.095,1.1H82.867a2.368,2.368,0,0,0,.087.72,1.547,1.547,0,0,0,.325.594,1.588,1.588,0,0,0,.562.42,1.986,1.986,0,0,0,.807.15,1.638,1.638,0,0,0,.981-.277,1.357,1.357,0,0,0,.507-.847h.942Z" transform="translate(-16.62 -12.288)" fill="#494a49"></path><path d="M91.234,63.2a1.222,1.222,0,0,0,.142.53,1.024,1.024,0,0,0,.348.34,1.918,1.918,0,0,0,.491.19,3.213,3.213,0,0,0,.562.063,3.158,3.158,0,0,0,.467-.032,1.645,1.645,0,0,0,.451-.119.839.839,0,0,0,.34-.261.7.7,0,0,0,.135-.435.632.632,0,0,0-.277-.554,2.515,2.515,0,0,0-.689-.309c-.277-.079-.578-.142-.9-.214a4.826,4.826,0,0,1-.9-.261,1.692,1.692,0,0,1-.689-.483,1.227,1.227,0,0,1-.285-.871,1.389,1.389,0,0,1,.2-.744,1.629,1.629,0,0,1,.507-.507,2.442,2.442,0,0,1,.689-.293,3.171,3.171,0,0,1,.76-.095,4.061,4.061,0,0,1,.9.087,2.07,2.07,0,0,1,.728.293,1.488,1.488,0,0,1,.507.554,2.1,2.1,0,0,1,.222.871H94a.954.954,0,0,0-.142-.459,1.147,1.147,0,0,0-.317-.3,1.215,1.215,0,0,0-.42-.158,2.261,2.261,0,0,0-.459-.047,2,2,0,0,0-.427.04,1.28,1.28,0,0,0-.4.119.924.924,0,0,0-.293.222.533.533,0,0,0-.111.356.562.562,0,0,0,.174.412,1.275,1.275,0,0,0,.443.269,4.8,4.8,0,0,0,.594.182c.222.047.443.1.665.15a4.9,4.9,0,0,1,.689.19,2.09,2.09,0,0,1,.594.3,1.482,1.482,0,0,1,.427.459,1.343,1.343,0,0,1,.158.689A1.547,1.547,0,0,1,94.4,64.8a2.422,2.422,0,0,1-.792.3,4.012,4.012,0,0,1-.871.087,3.775,3.775,0,0,1-.91-.1,2.5,2.5,0,0,1-.768-.325,1.651,1.651,0,0,1-.538-.6,2.077,2.077,0,0,1-.222-.9h.95Z" transform="translate(-18.377 -12.296)" fill="#494a49"></path><path d="M50.585,59.438a3.019,3.019,0,1,1-2.5.032v1.425a1.87,1.87,0,0,0-.562,1.346,1.892,1.892,0,1,0,3.783,0,1.868,1.868,0,0,0-.728-1.488V59.43l.008.008Z" transform="translate(-9.215 -12.355)" fill="#149ad6"></path><path d="M49.51,58.07h1.053V60.9H49.51Z" transform="translate(-9.873 -12.071)" fill="#0099d5"></path></g></g></svg> 